<svg width="256" height="256" viewBox="0 0 256 256" fill="none" xmlns="http://www.w3.org/2000/svg">
	<circle cx="128" cy="128" r="128" fill="#D9D9D9" />
	<path d="M130.56 41.984C175.744 41.984 212.864 75.392 219.136 118.784H245.76L200.96 169.984L156.16 118.784H185.856C182.992 106.254 175.965 95.0654 165.922 87.0447C155.879 79.0241 143.413 74.6455 130.56 74.624C112 74.624 95.616 83.712 85.248 97.408L63.36 72.448C71.7378 62.8679 82.0695 55.1926 93.6606 49.9379C105.252 44.6833 117.833 41.9712 130.56 41.984ZM125.44 214.016C80.384 214.016 43.136 180.608 36.864 137.216H10.24L55.04 86.016C70.016 103.04 84.864 120.192 99.84 137.216H70.144C73.0076 149.746 80.0347 160.935 90.078 168.955C100.121 176.976 112.587 181.355 125.44 181.376C144 181.376 160.384 172.288 170.752 158.592L192.64 183.552C184.27 193.142 173.94 200.824 162.347 206.079C150.754 211.335 138.169 214.041 125.44 214.016Z" fill="#D60000" />
</svg>